<?xml version="1.0" encoding="utf-8"?>
<!-- Generator: Adobe Illustrator 19.0.0, SVG Export Plug-In . SVG Version: 6.00 Build 0)  -->
<svg version="1.1" id="Capa_1" xmlns="http://www.w3.org/2000/svg" xmlns:xlink="http://www.w3.org/1999/xlink" x="0px" y="0px"
	 viewBox="0 0 110 110" style="enable-background:new 0 0 110 110;" xml:space="preserve">
<style type="text/css">
	.st0{fill:#FFFFFF;}
	.st1{fill:#F3EFEA;}
	.st2{fill:#030603;}
	.st3{fill:#1D1D1B;}
	.st4{fill:#FFFBE3;}
	.st5{fill:#F0853E;}
	.st6{fill:#0F0606;}
	.st7{fill:#474747;}
</style>
<g id="XMLID_3_">
	<g id="XMLID_80_">
		<g id="XMLID_349_">
			<path id="XMLID_350_" class="st0" d="M7.2,83.9H2.6v5.2h3.9v2.3H2.6v7.8H0V81.6h7.2V83.9z"/>
			<path id="XMLID_356_" class="st0" d="M32.9,99.2h-2.8l-1.4-3.6l-1.4,3.6h-2.7v0l2.7-5.8l-2.5-5.5h2.7l1.2,3.3l1.3-3.3h2.6v0
				l-2.5,5.5L32.9,99.2z"/>
			<path id="XMLID_358_" class="st0" d="M45.3,102c0,0.9-0.5,1.4-1.5,1.4h-4.5c-1,0-1.5-0.5-1.5-1.4v-1.8h2.5v1.4h2.3v-2.4h-2.6
				c-0.7,0-1.3-0.2-1.7-0.6c-0.4-0.4-0.6-1-0.6-1.7v-7c0-0.7,0.2-1.2,0.6-1.5c0.4-0.4,0.9-0.6,1.5-0.6c0.3,0,1.3,0.2,2.9,0.5v-0.4
				h2.6V102z M42.7,97.1v-7C41.9,90,41.3,90,41.1,90c-0.6,0-0.8,0.3-0.8,0.8v5.5c0,0.6,0.3,0.9,0.9,0.9H42.7z"/>
			<path id="XMLID_361_" class="st0" d="M58,92.6h-2.6V90l-2,0v9.2h-2.6V87.8h2.6v0.4c0.5-0.1,1.1-0.2,1.6-0.3
				c0.6-0.1,1.2-0.2,1.6-0.2c0.9,0,1.4,0.5,1.4,1.4V92.6z"/>
			<path id="XMLID_388_" class="st0" d="M70.5,99.2h-2.5v-0.4c-0.6,0.1-1.2,0.2-1.8,0.3c-0.8,0.1-1.3,0.2-1.7,0.2
				c-0.9,0-1.4-0.5-1.4-1.4v-4.1c0-0.9,0.5-1.4,1.5-1.4h3.5v-2.6h-2.5v1.6h-2.3v-2.1c0-0.9,0.5-1.4,1.5-1.4h4.4c1,0,1.4,0.5,1.4,1.4
				V99.2z M68.1,97.2v-3.1h-2.5v3.1L68.1,97.2z"/>
			<path id="XMLID_391_" class="st0" d="M83.6,96.9c0,0.9-0.3,1.6-1,1.9c-0.5,0.3-1.2,0.4-2.2,0.4c-0.2,0-0.5,0-1,0
				c-0.4,0-0.7,0-0.9,0v4.2h-2.6V87.8h2.6v0.4c0.6-0.1,1.2-0.2,1.8-0.3c0.8-0.1,1.4-0.2,1.8-0.2c0.9,0,1.4,0.5,1.4,1.4V96.9z
				 M81.1,96.2V90l-2.4,0v7h1.6C80.8,97.1,81.1,96.8,81.1,96.2z"/>
			<path id="XMLID_394_" class="st0" d="M96.8,99.2h-2.6V90l-2.4,0v9.2h-2.6V81.6h2.6v6.7c0.6-0.1,1.2-0.2,1.8-0.3
				c0.8-0.1,1.4-0.2,1.8-0.2c0.9,0,1.4,0.5,1.4,1.4V99.2z"/>
			<path id="XMLID_396_" class="st0" d="M110,87.8l-2.8,11.2l-1.1,4.3h-2.6l1.2-4.2l-2.9-11.3h2.6l1.5,7.5l1.5-7.5H110z"/>
		</g>
		<g id="XMLID_81_">
			<g id="XMLID_246_">
				<g id="XMLID_263_">
					<path id="XMLID_345_" class="st0" d="M15.7,101c-3.9,0-7.1-3.2-7.1-7.1c0-3.9,3.2-7.1,7.1-7.1c3.9,0,7.1,3.2,7.1,7.1
						C22.8,97.8,19.6,101,15.7,101z M15.7,86.9c-3.9,0-7,3.1-7,7c0,3.9,3.1,7,7,7c3.9,0,7-3.1,7-7C22.7,90,19.6,86.9,15.7,86.9z"/>
				</g>
				<g id="XMLID_253_">
					<g id="XMLID_262_">
						<path id="XMLID_340_" class="st1" d="M19.3,89.4c-0.6-0.5-1.3-0.8-2-1.1l-1.8,1.2l3.8,2.2l2,1.2
							C21.1,91.5,20.4,90.3,19.3,89.4z"/>
						<path id="XMLID_341_" class="st2" d="M21.4,93.1C21.4,93.1,21.3,93.1,21.4,93.1l-5.9-3.4c0,0-0.1-0.1-0.1-0.1
							c0,0,0-0.1,0.1-0.1l1.8-1.2c0,0,0.1,0,0.1,0c0.7,0.2,1.4,0.6,2,1.1c1.1,0.9,1.8,2.2,2.1,3.6C21.5,93,21.5,93,21.4,93.1
							C21.4,93.1,21.4,93.1,21.4,93.1z M15.8,89.5l5.4,3.2c-0.3-1.2-0.9-2.4-1.9-3.2l0,0c-0.6-0.5-1.2-0.8-1.9-1L15.8,89.5z"/>
					</g>
					<g id="XMLID_261_">
						<path id="XMLID_336_" class="st1" d="M15.7,88.1c-0.7,0-1.4,0.1-2,0.4c-0.6,0.2-1.1,0.5-1.6,0.9v2.3l3.4-2.1l1.8-1.2
							C16.8,88.2,16.3,88.1,15.7,88.1z"/>
						<path id="XMLID_337_" class="st2" d="M12.1,91.8C12.1,91.8,12.1,91.8,12.1,91.8c-0.1,0-0.1-0.1-0.1-0.1v-2.3c0,0,0-0.1,0-0.1
							c0.5-0.4,1-0.7,1.6-0.9c1.2-0.4,2.5-0.5,3.7-0.1c0,0,0.1,0.1,0.1,0.1s0,0.1-0.1,0.1L12.1,91.8C12.2,91.8,12.2,91.8,12.1,91.8z
							 M12.3,89.4v2l4.8-3c-1.1-0.3-2.2-0.2-3.3,0.2C13.2,88.8,12.7,89.1,12.3,89.4z"/>
					</g>
					<g id="XMLID_260_">
						<path id="XMLID_307_" class="st1" d="M10,93c0,0.3-0.1,0.6-0.1,0.9c0,0.3,0,0.6,0.1,0.9l2.1,1.3v-4.5v-2.3
							C11,90.2,10.3,91.5,10,93z"/>
						<path id="XMLID_308_" class="st2" d="M12.1,96.2C12.1,96.2,12.1,96.2,12.1,96.2L10,94.9c0,0-0.1-0.1-0.1-0.1
							c-0.1-0.3-0.1-0.6-0.1-0.9c0-0.3,0-0.6,0.1-0.9c0.2-1.5,1-2.8,2.2-3.7c0,0,0.1,0,0.1,0c0,0,0.1,0.1,0.1,0.1v6.7
							C12.3,96.1,12.2,96.2,12.1,96.2C12.2,96.2,12.2,96.2,12.1,96.2z M10.1,94.7l1.9,1.2v-6.2c-1,0.9-1.7,2.1-1.9,3.4h0
							c-0.1,0.3-0.1,0.6-0.1,0.9C10.1,94.1,10.1,94.4,10.1,94.7z"/>
					</g>
					<g id="XMLID_259_">
						<path id="XMLID_290_" class="st1" d="M21.4,92.9l-2-1.2V96v2.3c1.1-0.9,1.8-2.1,2-3.5c0.1-0.3,0.1-0.6,0.1-0.9
							C21.5,93.5,21.4,93.2,21.4,92.9z"/>
						<path id="XMLID_304_" class="st2" d="M19.3,98.5C19.3,98.5,19.3,98.4,19.3,98.5c-0.1,0-0.1-0.1-0.1-0.1v-6.6
							c0,0,0-0.1,0.1-0.1c0,0,0.1,0,0.1,0l2,1.2c0,0,0.1,0.1,0.1,0.1c0.1,0.3,0.1,0.7,0.1,1c0,0.3,0,0.6-0.1,1
							C21.3,96.2,20.5,97.5,19.3,98.5C19.4,98.4,19.4,98.5,19.3,98.5z M19.5,92V98c0.9-0.9,1.6-2,1.8-3.3c0.1-0.3,0.1-0.6,0.1-0.9
							c0-0.3,0-0.5-0.1-0.9L19.5,92z"/>
					</g>
					<g id="XMLID_257_">
						<path id="XMLID_270_" class="st1" d="M15.5,98.2l-1.8,1c0.6,0.2,1.3,0.4,2,0.4c0.6,0,1.1-0.1,1.6-0.2c0.7-0.2,1.4-0.6,2-1.1
							V96L15.5,98.2z"/>
						<path id="XMLID_271_" class="st2" d="M15.7,99.7c-0.7,0-1.4-0.1-2-0.4c0,0-0.1-0.1-0.1-0.1c0,0,0-0.1,0.1-0.1l5.6-3.3
							c0,0,0.1,0,0.1,0c0,0,0.1,0.1,0.1,0.1v2.3c0,0,0,0.1,0,0.1c-0.6,0.5-1.3,0.9-2,1.1C16.8,99.7,16.3,99.7,15.7,99.7z M14,99.2
							c1.1,0.3,2.2,0.4,3.3,0c0.7-0.2,1.3-0.5,1.9-1v-2.1l-3.6,2.1l0,0L14,99.2z"/>
					</g>
					<g id="XMLID_256_">
						<path id="XMLID_87_" class="st1" d="M12.1,96.1L10,94.8c0.2,1.5,1,2.7,2.1,3.6c0.5,0.4,1,0.7,1.6,0.9l1.8-1L12.1,96.1z"/>
						<path id="XMLID_267_" class="st2" d="M13.7,99.4C13.7,99.4,13.7,99.4,13.7,99.4c-0.6-0.2-1.2-0.5-1.6-0.9
							c-1.2-0.9-1.9-2.2-2.2-3.7c0,0,0-0.1,0.1-0.1c0,0,0.1,0,0.1,0l5.5,3.4c0,0,0.1,0.1,0.1,0.1c0,0,0,0.1-0.1,0.1L13.7,99.4
							C13.8,99.4,13.7,99.4,13.7,99.4z M10.2,95c0.3,1.3,1,2.4,2,3.2c0.4,0.4,0.9,0.6,1.5,0.8l1.6-0.9l-3.2-2l0,0L10.2,95z"/>
					</g>
				</g>
			</g>
			<g id="XMLID_82_">
				<g id="XMLID_86_">
					<circle id="XMLID_348_" class="st1" cx="15.7" cy="93.9" r="2.7"/>
				</g>
				<g id="XMLID_85_">
					<circle id="XMLID_344_" class="st3" cx="15.7" cy="93.9" r="2.3"/>
				</g>
				<g id="XMLID_84_">
					<path id="XMLID_266_" class="st1" d="M17.5,93.4c-0.1-0.6-0.5-1-1.1-1.3l0.1-0.1c0.6,0.2,1,0.7,1.1,1.3L17.5,93.4z"/>
				</g>
				<g id="XMLID_83_">
					<path id="XMLID_264_" class="st1" d="M15.4,95.8c-0.6-0.1-1.1-0.4-1.4-0.9l0.1-0.1c0.3,0.5,0.8,0.8,1.3,0.9L15.4,95.8z"/>
				</g>
			</g>
		</g>
	</g>
	<g id="XMLID_1_">
		<path id="XMLID_12_" class="st4" d="M97.8,59.1c0,0-11.2-1.1-25.1,11c0,0-9.3,9.4-17.6,8.9h0C47.1,79.4,37.4,70,37.4,70
			c-14-12.1-25.1-11-25.1-11l4.4-6l77.3,1.4L97.8,59.1z"/>
		<path id="XMLID_4_" class="st5" d="M12.2,59.1c0,0,15.8-10.6,42.8,12.7c27-23.3,42.8-12.7,42.8-12.7s-0.4-7.8-8.5-17.7
			c0,0,2.5-13.6-3.9-32.3c0,0-2.7-10.7-24.5,12.3c0,0-3.8-0.7-5.8-0.5c-2-0.1-5.8,0.5-5.8,0.5C27.4-1.6,24.7,9.1,24.7,9.1
			c-6.4,18.7-3.9,32.3-3.9,32.3C12.6,51.3,12.2,59.1,12.2,59.1"/>
		<path id="XMLID_2_" class="st4" d="M23.5,39.1c0,0,3-32.6,6.9-28.4c0,0,5.8,4.5,8.6,15.1l-2.6,1.7c0,0-1.7-5.3-5.9-7.4
			c0,0,1,2.7,0.4,7.9c0,0-0.6-1.8-4-2.2c0,0,2.2,0.9-0.2,10.2L23.5,39.1z"/>
		<path id="XMLID_5_" class="st4" d="M86.3,39.1c0,0-3-32.6-6.9-28.4c0,0-5.8,4.5-8.6,15.1l2.6,1.7c0,0,1.7-5.3,5.9-7.4
			c0,0-1,2.7-0.4,7.9c0,0,0.6-1.8,4-2.2c0,0-2.2,0.9,0.2,10.2L86.3,39.1z"/>
		<path id="XMLID_6_" class="st6" d="M46.5,67.8c0,0,6.6,11,16,0.2c0,0,1.4-2.5-2.3-3.3c0,0-6.1-1.9-12.3,0
			C47.9,64.7,45.3,65.4,46.5,67.8z"/>
		<g id="XMLID_280_">
			<g id="XMLID_282_">
				
					<ellipse id="XMLID_512_" transform="matrix(0.9997 2.243094e-002 -2.243094e-002 0.9997 1.0625 -0.9027)" cx="40.8" cy="46.9" rx="2.5" ry="3.8"/>
			</g>
			<g id="XMLID_281_">
				
					<ellipse id="XMLID_510_" transform="matrix(0.9997 2.243094e-002 -2.243094e-002 0.9997 1.0307 -0.9026)" class="st0" cx="40.7" cy="45.5" rx="1.1" ry="1.6"/>
			</g>
		</g>
		<g id="XMLID_277_">
			<g id="XMLID_279_">
				
					<ellipse id="XMLID_507_" transform="matrix(0.9997 2.243094e-002 -2.243094e-002 0.9997 1.084 -1.541)" cx="69.2" cy="47.6" rx="2.5" ry="3.8"/>
			</g>
			<g id="XMLID_278_">
				
					<ellipse id="XMLID_505_" transform="matrix(0.9997 2.243094e-002 -2.243094e-002 0.9997 1.0523 -1.5458)" class="st0" cx="69.4" cy="46.1" rx="1.1" ry="1.6"/>
			</g>
		</g>
		<path id="XMLID_10_" class="st7" d="M83.7,24.4c-0.2,0-0.4,0.1-0.5,0.3c0,0.1,0,0.3,0.1,0.3c0.1,0.2,0.4,0.3,0.5,0.2
			c0.2-0.1,0.3-0.3,0.2-0.5C84.1,24.5,83.9,24.4,83.7,24.4z"/>
		<path id="XMLID_13_" class="st7" d="M25.8,35.4c-0.1-0.3-0.3-0.5-0.6-0.5c-0.3,0-0.5,0.2-0.6,0.4c-0.1,0.2,0,0.4,0.2,0.5
			c0.2,0.2,0.5,0.3,0.7,0.2C25.7,35.9,25.8,35.6,25.8,35.4z"/>
		<path id="XMLID_9_" class="st7" d="M85.2,35.4c-0.1-0.3-0.3-0.5-0.6-0.5c-0.3,0-0.5,0.2-0.6,0.4c-0.1,0.2,0,0.4,0.2,0.5
			c0.2,0.2,0.5,0.3,0.7,0.2C85.1,35.9,85.3,35.6,85.2,35.4z"/>
		<path id="XMLID_15_" class="st7" d="M87.7,17.4c0.5,0.2,0.7,1.2,0.2,1.1c-0.1,0-0.3,0-0.4-0.1c-0.2,0-0.4-0.1-0.6-0.1
			c-0.5-0.1-0.9-0.2-1.3-0.3c-1.1-0.3-2.5-1.1-3.1-2.1c0.1-0.1,0.1-0.2,0.1-0.3c0.1-0.3-0.1-0.6-0.4-0.7c-0.2-0.1-0.5,0-0.6,0.2
			c-0.1,0.2-0.2,0.4-0.1,0.6c0,0.1,0.1,0.2,0.1,0.2c0.1,0.1,0.3,0.2,0.4,0.2c0.1,0,0.1,0,0.2,0c0.9,1.6,3.1,2.3,4.8,2.6
			c0.5,0.1,1.1,0.3,1.4-0.1c0.4-0.5-0.3-1.4-0.8-1.6"/>
		<path id="XMLID_29_" d="M69.2,37.8c-5.1,0-9.5,4.1-9.7,9.2c-1.1-0.9-4.9-3.5-9,0c0,0,0-0.1,0-0.1c0-5.4-4.4-9.7-9.7-9.7
			c-5.4,0-9.7,4.4-9.7,9.7s4.4,9.7,9.7,9.7c5.1,0,9.3-3.9,9.7-9c4.4-4.2,8.5-0.6,9,0c0.1,5.3,4.4,9.6,9.7,9.6c5.4,0,9.7-4.4,9.7-9.7
			S74.6,37.8,69.2,37.8z M69.2,56.8c-5.1,0-9.3-4.2-9.3-9.3s4.2-9.3,9.3-9.3s9.3,4.2,9.3,9.3S74.3,56.8,69.2,56.8z M40.8,37.6
			c5.1,0,9.3,4.2,9.3,9.3s-4.2,9.3-9.3,9.3s-9.3-4.2-9.3-9.3S35.7,37.6,40.8,37.6z"/>
	</g>
</g>
</svg>
